<svg width="56" height="55" viewBox="0 0 56 55" fill="none" xmlns="http://www.w3.org/2000/svg">
<mask id="mask0_2_275" style="mask-type:alpha" maskUnits="userSpaceOnUse" x="0" y="1" width="55" height="53">
<path d="M0.400452 1.05762H54.2173V53.9105H0.400452V1.05762Z" fill="white"/>
</mask>
<g mask="url(#mask0_2_275)">
<path fill-rule="evenodd" clip-rule="evenodd" d="M16.9048 31.4557L18.576 27.006C20.0831 23.5065 22.4812 21.8672 25.7704 22.0883C29.5336 22.3116 31.1215 26.5893 31.1215 26.5893C31.0215 25.1404 30.8214 18.5141 21.3862 9.56596C17.2183 5.60077 14.5933 3.43923 13.5114 3.08136C12.0925 4.22855 10.9563 5.62437 10.1028 7.26885C9.24934 8.91332 7.79351 11.6275 5.73533 15.4113C3.20459 19.4902 1.87615 22.7377 1.75 25.1536C6.83292 28.2855 11.8845 30.3862 16.9048 31.4557Z" fill="#F59F28"/>
<path fill-rule="evenodd" clip-rule="evenodd" d="M29.1475 14.0831L31.8061 17.9273C33.7978 21.1297 33.8592 24.2018 31.9903 27.1434C29.8755 30.5242 25.6743 29.7961 25.6743 29.7961C26.8718 30.4494 32.2158 33.6764 44.1526 29.5202C49.4355 27.6906 52.497 26.3655 53.3373 25.5447C53.1608 23.6358 52.642 21.8614 51.7809 20.2216C50.9198 18.5818 49.5229 15.8315 47.5902 11.9708C45.6674 7.51901 43.7831 4.61239 41.9372 3.2509C36.8422 6.35963 32.579 9.97038 29.1475 14.0831Z" fill="#8DC240"/>
<path fill-rule="evenodd" clip-rule="evenodd" d="M36.758 34.1622L32.3667 34.8185C28.8166 35.1538 26.3076 33.7227 24.8397 30.5251C23.1365 26.8815 25.7609 23.2523 25.7609 23.2523C24.6531 24.0706 19.458 27.5715 17.0251 40.901C15.9404 46.7954 15.5256 50.3398 15.7806 51.5342C17.4068 52.2923 19.0903 52.6608 20.8311 52.6396C22.572 52.6184 25.4688 52.6277 29.5215 52.6675C34.0464 53.0032 37.3057 52.6263 39.2994 51.5367C39.2606 45.2002 38.4135 39.4087 36.758 34.1622Z" fill="#25AAE1"/>
</g>
</svg>
